<svg version="1.1" id="Layer_1" xmlns="http://www.w3.org/2000/svg" xmlns:xlink="http://www.w3.org/1999/xlink" x="0px" y="0px"
	 width="100%" viewBox="0 0 1024 1024" enable-background="new 0 0 1024 1024" xml:space="preserve">
<path fill="#FFFFFF" opacity="1.000000" stroke="none" 
	d="
M351.002167,700.135376 
	C316.993408,685.115967 284.947845,667.255859 254.109207,647.254456 
	C241.306549,638.950989 228.732529,630.285767 216.366562,621.294739 
	C202.265305,611.041992 188.372910,600.552734 174.769196,589.663147 
	C156.982697,575.425232 139.576599,560.733276 122.644722,545.493347 
	C115.509361,539.070984 107.625404,533.405884 102.078575,525.306763 
	C96.792076,517.587830 98.833183,501.080841 105.692650,494.732086 
	C119.003548,482.412262 132.809006,470.673920 146.795792,459.158142 
	C160.119141,448.188538 173.774124,437.618225 187.378922,426.994812 
	C203.225952,414.620514 218.932770,401.876404 236.500931,392.104858 
	C258.213287,380.028320 283.503265,384.028259 301.116333,401.574341 
	C304.176941,404.623291 307.108582,407.815979 310.320221,410.696472 
	C324.055634,423.015686 325.965912,437.315399 319.896240,454.452301 
	C313.197815,473.364380 309.455658,492.955292 310.555756,513.418152 
	C311.178375,524.999146 310.800873,536.623230 313.421051,548.001892 
	C316.126007,559.748352 319.602417,571.269348 324.114319,582.473938 
	C336.309082,612.757935 354.927734,638.595215 379.181152,660.199585 
	C401.203094,679.816223 426.162720,694.657715 454.295929,704.184937 
	C465.965576,708.136780 477.790161,711.658081 489.842010,713.146729 
	C505.187866,715.042236 520.665771,715.999146 536.333740,713.996765 
	C548.696045,712.416870 560.773987,710.194397 572.657166,706.666687 
	C585.767944,702.774536 598.366882,697.336121 609.946472,690.280701 
	C624.068604,681.675964 628.428040,662.563293 615.832947,648.582336 
	C601.164673,632.299988 584.597351,618.190369 565.607971,607.165344 
	C554.391174,600.652893 542.513428,595.200500 530.008484,591.888123 
	C522.430847,589.880859 514.280762,589.871399 506.240784,590.654907 
	C488.228760,592.410156 472.581970,601.327148 455.850250,606.919983 
	C443.594818,611.016541 431.701569,616.186279 419.511017,620.493164 
	C415.309418,621.977478 410.682922,621.557129 407.544220,617.796997 
	C404.788757,614.495850 403.838104,610.756104 405.593353,606.249084 
	C412.073395,589.609924 418.315765,572.876648 424.492310,556.121521 
	C428.273132,545.865173 433.116516,535.747681 435.036621,525.125732 
	C437.175598,513.292969 436.320587,501.041656 432.057220,489.306854 
	C421.861298,461.242920 405.054077,437.726135 383.961182,416.842224 
	C369.473633,402.498199 354.555084,388.572357 340.747375,373.540924 
	C337.498199,370.003784 333.456726,367.266663 330.383453,363.494720 
	C322.023285,353.233826 324.307922,336.811646 336.611389,329.960419 
	C354.896423,319.778320 373.774170,310.989380 393.652405,304.183044 
	C406.372803,299.827545 419.177490,295.768005 432.291687,293.248718 
	C439.535065,291.857208 446.949371,290.593201 454.250336,289.351257 
	C465.255432,287.479218 476.337433,287.242126 487.349518,286.149872 
	C498.226440,285.071075 509.282227,285.121155 520.244324,286.345276 
	C525.019470,286.878510 529.807556,287.560638 534.598328,287.636200 
	C545.919617,287.814819 556.863525,290.441223 567.976868,292.023193 
	C580.645752,293.826599 592.935486,297.043549 605.276428,300.051636 
	C614.708069,302.350616 623.828674,305.914917 633.106934,308.855682 
	C661.823059,317.957489 688.955566,330.768402 715.651489,344.501953 
	C735.419922,354.671692 754.444214,366.176788 773.071228,378.330109 
	C793.106628,391.402405 812.530273,405.319275 831.564941,419.807587 
	C851.410645,434.913086 870.779663,450.590332 889.514893,467.047058 
	C899.608154,475.912811 909.598633,484.896057 919.596619,493.869659 
	C931.386047,504.451080 931.033325,521.773621 919.204590,532.439331 
	C904.273987,545.902039 889.224731,559.231079 873.608765,571.881226 
	C858.652832,583.996826 843.454102,595.809631 827.957031,607.253052 
	C816.875793,615.435669 805.839355,623.670227 794.384033,631.310364 
	C787.121704,636.153992 779.077087,638.821533 770.246155,639.746399 
	C750.472778,641.817200 734.959351,634.482727 721.789124,620.120117 
	C716.314575,614.149963 710.146301,608.965881 706.293762,601.564392 
	C701.769775,592.872803 702.335449,584.299866 705.627563,575.582886 
	C710.245972,563.354004 714.029663,550.723267 715.192688,537.845642 
	C716.450073,523.922363 718.020203,509.960266 715.639893,495.659912 
	C714.055847,486.143127 713.090454,476.483673 710.701965,467.074921 
	C706.152466,449.153992 699.145386,432.205353 689.678589,416.356903 
	C677.846863,396.549469 663.389526,378.841858 645.897156,363.705231 
	C632.657837,352.248901 618.166504,342.647247 602.809204,334.255219 
	C586.247131,325.204865 568.480347,319.207001 550.334412,314.811646 
	C532.067932,310.387054 513.269348,310.311279 494.437897,311.247528 
	C483.060760,311.813202 472.119202,314.063599 461.265320,316.881317 
	C445.833221,320.887543 430.668823,326.347534 417.361511,334.990967 
	C403.537476,343.970001 396.852203,360.444153 411.043945,376.382721 
	C428.978943,396.525330 449.537384,413.415100 474.117737,425.013306 
	C486.339539,430.780212 498.960602,435.451172 512.628235,435.461823 
	C523.094238,435.469971 533.294189,433.298523 543.108398,429.323883 
	C553.073914,425.287994 563.221863,421.703552 573.279419,417.893524 
	C583.628052,413.973328 593.984131,410.071136 604.291077,406.043640 
	C606.836670,405.048981 609.482605,404.594513 612.091248,404.551727 
	C619.833130,404.424683 623.959290,411.918060 620.754517,420.652435 
	C615.044067,436.215240 609.001526,451.655853 603.213196,467.190552 
	C599.738708,476.515259 595.815918,485.748749 593.331726,495.343536 
	C591.204651,503.558990 590.154358,512.090027 591.569397,520.827881 
	C594.966858,541.807373 604.740173,559.776917 616.323669,577.174622 
	C630.053528,597.795959 648.941895,613.547424 665.855713,631.162598 
	C675.086609,640.776367 684.597412,650.127625 694.147522,659.427307 
	C706.878052,671.823975 703.143066,689.102234 688.528748,697.072449 
	C670.087219,707.129761 650.994934,715.682495 631.288391,722.572266 
	C617.019714,727.560852 602.238770,731.203064 587.143799,733.750183 
	C564.032471,737.650024 540.884460,740.932434 517.496155,740.011292 
	C503.159271,739.446716 488.757782,738.471802 474.461243,736.081482 
	C463.866577,734.310059 453.186279,732.768005 442.654846,730.700317 
	C433.929382,728.987244 425.314453,726.451233 416.720825,723.944763 
	C406.537720,720.974487 396.597473,717.399231 386.549622,714.085632 
	C374.555878,710.130371 362.912964,705.318604 351.002167,700.135376 
z"/>
</svg>
